<?xml version="1.0" encoding="UTF-8"?>
<!DOCTYPE svg PUBLIC "-//W3C//DTD SVG 1.1//EN" "http://www.w3.org/Graphics/SVG/1.1/DTD/svg11.dtd">
<!-- Creator: CorelDRAW -->
<svg xmlns="http://www.w3.org/2000/svg" xml:space="preserve" width="1.40669in" height="1.29715in" style="shape-rendering:geometricPrecision; text-rendering:geometricPrecision; image-rendering:optimizeQuality; fill-rule:evenodd; clip-rule:evenodd"
viewBox="0 0 0.268947 0.248005"
 xmlns:xlink="http://www.w3.org/1999/xlink">
 <defs>
  <style type="text/css">
   <![CDATA[
    .fil0 {fill:#ED3237;fill-rule:nonzero}
    .fil1 {fill:#4663AC;fill-rule:nonzero}
   ]]>
  </style>
 </defs>
 <g id="Layer_x0020_1">
  <metadata id="CorelCorpID_0Corel-Layer"/>
  <path class="fil0" d="M0.129344 0.00472485c0.00436881,-0.00331048 0.0102047,-0.00340156 0.0154361,-0.00414224 0.0172509,-0.00193525 0.0361044,0.000694764 0.050014,0.0117929 0.00731799,0.00550317 0.0116567,0.0137432 0.0172969,0.0207428 0.0118373,-0.000211516 0.024039,0.00402181 0.0320676,0.0129423 0.00981176,0.010977 0.0134858,0.0262467 0.0127903,0.0407006 -0.000831008,0.00518627 0.00287315,0.00917721 0.00515616,0.0134105 0.0110063,0.0192163 0.00845159,0.0449647 -0.00564016,0.0619131 -0.00299358,0.00393148 -0.00870827,0.00666763 -0.00836051,0.0122769 -0.000514111,0.0143778 -0.00819416,0.0286509 -0.0208798,0.0357868 -0.00492809,0.00294842 -0.0115656,0.00387051 -0.014438,0.0094497 -0.0102363,0.0160865 -0.0284695,0.025914 -0.0471574,0.0280917 -0.0116717,0.000392922 -0.0233585,6.02179e-005 -0.0350461,0.000105381 -0.0015875,-0.00359802 -0.00341662,-0.00730218 -0.00317499,-0.0113541 4.59162e-005,-0.0710903 3.08617e-005,-0.142196 0,-0.213286 0.000136243,-0.00615352 -0.000800899,-0.0126699 0.00193601,-0.0184305zm0.00978165 0.00834621l0 0c1.50545e-005,0.0148467 -4.51635e-005,0.0296784 1.50545e-005,0.0445259 0.00480765,-0.000453893 0.010916,0.00155739 0.0144388,-0.00275196 0.00229807,-0.00211666 0.00424838,-0.00459613 0.00671279,-0.00651633 0.0027068,0.000256679 0.00530671,0.00114941 0.00795253,0.00173879 -9.03269e-005,0.00288745 -4.51635e-005,0.00601728 -0.00213172,0.00830029 -0.00591114,0.00885956 -0.0169333,0.011808 -0.0270025,0.0124124 1.50545e-005,0.0215302 -1.50545e-005,0.0430445 3.0109e-005,0.0645747 0.00529165,0.00442978 0.0117177,0.00846589 0.0189596,0.00659161 0.00875418,-0.00302369 0.0140601,-0.0115363 0.0224967,-0.0151945 0.00804361,-0.00449075 0.0174933,-0.00296348 0.0262927,-0.00308466 0.00337145,-0.00678882 0.00845159,-0.0127 0.0151952,-0.0162987 0.00146631,0.00300939 0.0041573,0.00583662 0.00373351,0.00943465 -0.00439967,0.00506508 -0.0110666,0.0105984 -0.0086631,0.0182031 0.00125479,0.00710647 0.00913205,0.00905678 0.0146352,0.011884 -0.000392922,0.00297853 0.000786597,0.00680387 -0.00235829,0.00863299 -0.00633493,0.000499056 -0.0124884,-0.0024042 -0.016843,-0.00687915 -0.00383965,-0.00403686 -0.00495895,-0.00979746 -0.00840567,-0.014091 -0.00559425,-0.000801651 -0.0116725,-0.00116446 -0.0169491,0.00122468 -0.00967552,0.00387051 -0.0153307,0.0141362 -0.0256875,0.0167519 -0.00746853,0.00331123 -0.0153006,-0.000196461 -0.0223762,-0.00276701 -0.00133006,0.0133353 -0.00154158,0.026867 0.000272486,0.0401714 0.00621374,-3.0109e-005 0.0124726,-0.000407977 0.0186269,0.000635299 0.00893559,0.00229807 0.015467,0.00955583 0.0198508,0.0173262 -0.0030538,0.00149717 -0.00612266,0.00296348 -0.00922238,0.00435451 -0.00408202,-0.00430859 -0.00793748,-0.00947981 -0.0138644,-0.0113089 -0.005458,-0.000967251 -0.0110372,-0.000392922 -0.0165253,0 -4.51635e-005,0.0119292 -9.03269e-005,0.0238583 3.08617e-005,0.0357868 0.00665182,0.000197214 0.0133044,0.000197214 0.019957,0.000211516 0.0159352,0.000575081 0.031856,-0.00677301 0.0422278,-0.0187925 0.00282723,-0.00338651 0.00559349,-0.00739326 0.00524649,-0.0120346 0.000241624,-0.0091471 -0.00264658,-0.0193224 -0.0105231,-0.0247503 -0.00636504,-0.00424838 -0.0143176,-0.00439967 -0.0216506,-0.00523143 -0.00382534,-0.0020715 -0.0012706,-0.00703044 -0.000983058,-0.0103266 0.0112487,-0.000120436 0.0235558,0.000846815 0.032325,0.00876924 0.0083304,0.00710647 0.00973649,0.0184455 0.0125938,0.0283634 0.00501992,-0.0025698 0.00979746,-0.00583587 0.0131237,-0.0104772 0.00616858,-0.00819491 0.00734809,-0.0188384 0.00709066,-0.0287872 0.00482346,-0.00373426 0.0101753,-0.00716669 0.0133202,-0.0125637 0.00683398,-0.0106443 0.00746853,-0.0240548 0.00521638,-0.0361646 -0.00161836,-0.00793823 -0.00727282,-0.0139555 -0.0112035,-0.0207594 -0.000604438,-0.0057749 0.00181407,-0.0115054 0.000514111,-0.0172351 -0.00122468,-0.00999392 -0.00515541,-0.0202144 -0.0133052,-0.0265651 -0.00518552,-0.00447495 -0.0121708,-0.00535187 -0.018581,-0.00695442 -0.0025555,0.00870902 -0.00378018,0.0178411 -0.00772596,0.0261263 0.00816405,0.00569963 0.0173864,0.0130026 0.0171448,0.024039 -0.00311402,6.02179e-005 -0.00621374,7.60251e-005 -0.00932851,9.10796e-005 -0.00299358,-0.0059119 -0.00740831,-0.0109318 -0.0131689,-0.0142573 -0.0065615,0.00628976 -0.0134256,0.012639 -0.0220736,0.0159201 -0.0060933,0.00278207 -0.0128814,0.00281218 -0.0194278,0.00273691 -9.10796e-005,-0.00300864 -0.000151298,-0.00601803 -0.000242377,-0.00902667 0.00781704,-0.00210161 0.0162385,-0.00303875 0.0231169,-0.00764994 0.00766574,-0.00489873 0.0127609,-0.0129122 0.015951,-0.0212727 0.00234323,-0.00681893 0.00458108,-0.0141061 0.00326607,-0.0213781 -0.00424913,-0.00922313 -0.0114301,-0.017266 -0.020517,-0.0219231 -0.012715,-0.00666763 -0.0278192,-0.00588103 -0.0415775,-0.00376437z"/>
  <path class="fil1" d="M0.0747786 0.0118306c0.0123379,-0.0051396 0.0254458,-0.00943389 0.0389625,-0.00919227 0,0.0033564 0.000151298,0.00671355 -0.000166352,0.0100692 -0.00161836,0.00234398 -0.00458108,0.00226796 -0.00707561,0.00281293 -0.0300721,0.00439967 -0.0577257,0.022255 -0.074674,0.0474133 -0.0115814,0.0167218 -0.0178253,0.0367089 -0.0194278,0.0568932 -0.00102822,0.025007 0.00636504,0.0503768 0.0209701,0.0707425 0.0116416,0.0170093 0.0287413,0.0298756 0.0475955,0.0379343 0.0104471,0.00455097 0.0217259,0.00651633 0.0328233,0.00876848 -1.50545e-005,0.0035378 0,0.00707636 3.0109e-005,0.0106142 -0.00388556,0.000105381 -0.00778618,0.000271733 -0.0116416,-0.000181407 -0.0305102,-0.00541284 -0.0585868,-0.0228151 -0.0771527,-0.0475955 -0.0208497,-0.0275467 -0.0296942,-0.064166 -0.0226186,-0.0980627 0.00722691,-0.0395971 0.0354849,-0.0743406 0.0723752,-0.0902163z"/>
  <path class="fil1" d="M0.0573922 0.0628886c0.0129717,-0.0127308 0.0301775,-0.0207436 0.0480637,-0.0234955 0.00281218,-0.000211516 0.00615352,-0.00101317 0.00822427,0.00149717 0.000212268,0.0033564 0.000136243,0.00669774 0.000181407,0.0100541 -0.0152547,0.00226721 -0.0306156,0.00680387 -0.0427261,0.0167669 -0.0111426,0.00867816 -0.0193525,0.0209701 -0.0239336,0.0342904 -0.00275196,0.00748358 -0.00281218,0.0155874 -0.00477754,0.0232682 -0.0039917,-3.0109e-005 -0.00798339,-9.03269e-005 -0.0119894,-0.000211516 0,-0.023208 0.0100391,-0.0462647 0.0269573,-0.0621698z"/>
  <path class="fil1" d="M0.0666447 0.115322c0.0038404,-0.0213488 0.0223913,-0.040142 0.0442843,-0.0422278 4.51635e-005,0.00370416 4.51635e-005,0.00740831 1.50545e-005,0.0111275 -0.0129724,0.00337145 -0.0247804,0.0120647 -0.0301172,0.024584 -0.00789231,0.0169634 -0.00208655,0.0387194 0.0128964,0.0497874 0.00449075,0.00346178 0.00991865,0.00523068 0.014983,0.00761983 0.00453592,0.00155663 0.00264583,0.00731723 0.00270604,0.0109311 -0.0115204,0.000438086 -0.0219524,-0.00595706 -0.0297996,-0.0138644 -0.00533681,-0.0051253 -0.00954003,-0.0113691 -0.0122769,-0.0182332 -0.00424838,-0.00931346 -0.00300864,-0.0198215 -0.00269099,-0.0297243z"/>
  <path class="fil1" d="M0.0375105 0.16015c0.00322015,-0.00214677 0.00639515,-0.00505003 0.0104772,-0.00509444 0.00249453,0.00102747 0.00317499,0.00405116 0.0046571,0.00609255 0.00766499,0.0145901 0.0207737,0.0260653 0.0358929,0.0324605 0.00808877,0.00359877 0.0170695,0.00409708 0.0253239,0.00713658 -7.52724e-005,0.00362888 -0.000105381,0.00727207 -0.000150545,0.010916 -0.0181888,0.000392922 -0.035923,-0.00716669 -0.0502263,-0.0180676 -0.0113691,-0.0086631 -0.0198817,-0.0205923 -0.0259743,-0.0334435z"/>
 </g>
</svg>
