<?xml version="1.0" encoding="UTF-8"?>
<!DOCTYPE svg PUBLIC "-//W3C//DTD SVG 1.1//EN" "http://www.w3.org/Graphics/SVG/1.1/DTD/svg11.dtd">
<!-- Creator: CorelDRAW -->
<svg xmlns="http://www.w3.org/2000/svg" xml:space="preserve" width="5.8927in" height="1.12584in" style="shape-rendering:geometricPrecision; text-rendering:geometricPrecision; image-rendering:optimizeQuality; fill-rule:evenodd; clip-rule:evenodd"
viewBox="0 0 8.64846 1.65235"
 xmlns:xlink="http://www.w3.org/1999/xlink">
 <defs>
  <style type="text/css">
   <![CDATA[
    .fil0 {fill:#4663AC;fill-rule:nonzero}
   ]]>
  </style>
 </defs>
 <g id="Layer_x0020_1">
  <metadata id="CorelCorpID_0Corel-Layer"/>
  <path class="fil0" d="M0.0675873 0.680703c0,-0.179117 0.0563718,-0.326108 0.16911,-0.440666 0.112744,-0.114564 0.258827,-0.171843 0.438245,-0.171843 0.14093,0 0.251547,0.0287926 0.331863,0.0866783 0.080617,0.0578857 0.120926,0.114864 0.120926,0.171236 0,0.0357611 -0.0127293,0.0654609 -0.0381879,0.0894056 -0.0254586,0.0239447 -0.050611,0.0394013 -0.0754629,0.0466703 -0.0248519,0.00727472 -0.0384942,0.00848813 -0.0409152,0.00364025 -0.0290989,-0.0509172 -0.0694074,-0.090619 -0.121232,-0.119712 -0.0518244,-0.0290989 -0.107283,-0.0436425 -0.166382,-0.0436425 -0.0994076,0 -0.181238,0.0348539 -0.245491,0.104862 -0.0642532,0.0697078 -0.0963741,0.160627 -0.0963741,0.272158 0,0.11153 0.0324271,0.202756 0.0972813,0.273065 0.06486,0.0706208 0.146991,0.105775 0.246398,0.105775 0.0678877,0 0.1282,-0.0160633 0.180331,-0.0481899 0.0518244,-0.0318204 0.0894056,-0.0763758 0.112744,-0.133349 0.00212059,-0.00485366 0.0163638,-0.00364025 0.0424291,0.00363447 0.0260595,0.00727472 0.0521249,0.0227313 0.0781902,0.0463698 0.0260653,0.0236385 0.0390951,0.0533383 0.0390951,0.0887989 0,0.0600121 -0.0418224,0.121232 -0.125773,0.183665 -0.0836448,0.0621269 -0.197908,0.0933463 -0.343079,0.0933463 -0.178205,0 -0.323375,-0.0566781 -0.435512,-0.170329 -0.112137,-0.113651 -0.168203,-0.260942 -0.168203,-0.441574z"/>
  <path id="1" class="fil0" d="M1.23775 0.826174c0,-0.137289 0.0442492,-0.249126 0.132742,-0.335498 0.0884984,-0.0863779 0.203062,-0.129414 0.343986,-0.129414 0.139109,0 0.25246,0.0433421 0.339745,0.130321 0.087285,0.0866783 0.130928,0.199422 0.130928,0.338531 0,0.138809 -0.0436425,0.25064 -0.131228,0.335504 -0.0875913,0.084552 -0.201849,0.126987 -0.342778,0.126987 -0.140924,0 -0.255187,-0.0430358 -0.342466,-0.128807 -0.087285,-0.0857712 -0.130928,-0.198515 -0.130928,-0.337624zm0.225482 0c0,0.0778897 0.0236385,0.141837 0.0709213,0.191847 0.0475832,0.0500043 0.106983,0.0748562 0.178511,0.0748562 0.0718284,0 0.130928,-0.0248519 0.177297,-0.0748562 0.0463698,-0.0500101 0.0697021,-0.112744 0.0697021,-0.188513 0,-0.0778897 -0.0233322,-0.142137 -0.0697021,-0.192754 -0.0463698,-0.050611 -0.105469,-0.0757634 -0.177297,-0.0757634 -0.071528,0 -0.130928,0.0248519 -0.178511,0.0748562 -0.0472828,0.0500043 -0.0709213,0.11335 -0.0709213,0.190327z"/>
  <path id="12" class="fil0" d="M2.30335 0.680703c0,-0.179117 0.0563718,-0.326108 0.16911,-0.440666 0.112744,-0.114564 0.258827,-0.171843 0.438245,-0.171843 0.14093,0 0.251547,0.0287926 0.331863,0.0866783 0.080617,0.0578857 0.120926,0.114864 0.120926,0.171236 0,0.0357611 -0.0127293,0.0654609 -0.0381879,0.0894056 -0.0254586,0.0239447 -0.050611,0.0394013 -0.0754629,0.0466703 -0.0248519,0.00727472 -0.0384942,0.00848813 -0.0409152,0.00364025 -0.0290989,-0.0509172 -0.0694074,-0.090619 -0.121232,-0.119712 -0.0518244,-0.0290989 -0.107283,-0.0436425 -0.166382,-0.0436425 -0.0994076,0 -0.181238,0.0348539 -0.245491,0.104862 -0.0642532,0.0697078 -0.0963741,0.160627 -0.0963741,0.272158 0,0.11153 0.0324271,0.202756 0.0972813,0.273065 0.06486,0.0706208 0.146991,0.105775 0.246398,0.105775 0.0678877,0 0.1282,-0.0160633 0.180331,-0.0481899 0.0518244,-0.0318204 0.0894056,-0.0763758 0.112744,-0.133349 0.00212059,-0.00485366 0.0163638,-0.00364025 0.0424291,0.00363447 0.0260595,0.00727472 0.0521249,0.0227313 0.0781902,0.0463698 0.0260653,0.0236385 0.0390951,0.0533383 0.0390951,0.0887989 0,0.0600121 -0.0418224,0.121232 -0.125773,0.183665 -0.0836448,0.0621269 -0.197908,0.0933463 -0.343079,0.0933463 -0.178205,0 -0.323375,-0.0566781 -0.435512,-0.170329 -0.112137,-0.113651 -0.168203,-0.260942 -0.168203,-0.441574z"/>
  <path id="123" class="fil0" d="M3.47351 0.826174c0,-0.137289 0.0442492,-0.249126 0.132742,-0.335498 0.0884984,-0.0863779 0.203062,-0.129414 0.343986,-0.129414 0.139109,0 0.25246,0.0433421 0.339745,0.130321 0.087285,0.0866783 0.130928,0.199422 0.130928,0.338531 0,0.138809 -0.0436425,0.25064 -0.131228,0.335504 -0.0875913,0.084552 -0.201849,0.126987 -0.342778,0.126987 -0.140924,0 -0.255187,-0.0430358 -0.342466,-0.128807 -0.087285,-0.0857712 -0.130928,-0.198515 -0.130928,-0.337624zm0.225482 0c0,0.0778897 0.0236385,0.141837 0.0709213,0.191847 0.0475832,0.0500043 0.106983,0.0748562 0.178511,0.0748562 0.0718284,0 0.130928,-0.0248519 0.177297,-0.0748562 0.0463698,-0.0500101 0.0697021,-0.112744 0.0697021,-0.188513 0,-0.0778897 -0.0233322,-0.142137 -0.0697021,-0.192754 -0.0463698,-0.050611 -0.105469,-0.0757634 -0.177297,-0.0757634 -0.071528,0 -0.130928,0.0248519 -0.178511,0.0748562 -0.0472828,0.0500043 -0.0709213,0.11335 -0.0709213,0.190327z"/>
  <path id="1234" class="fil0" d="M4.46 1.40565c0,-0.060613 0.0254586,-0.110924 0.0760696,-0.151232 0.050611,-0.0403085 0.117898,-0.0663738 0.201849,-0.078196 -0.0206107,-0.0181839 -0.0309132,-0.0457631 -0.0309132,-0.0824314 0,-0.0403085 0.0199982,-0.074862 0.0600063,-0.103048 -0.0760696,-0.0221246 -0.135475,-0.0587929 -0.178511,-0.110317 -0.0430358,-0.0515239 -0.0645537,-0.112437 -0.0645537,-0.182752 0,-0.0960736 0.0378817,-0.175783 0.113957,-0.239424 0.0760696,-0.0636465 0.17275,-0.0954727 0.290035,-0.0954727 0.0672868,0 0.131234,0.0127293 0.191847,0.0381879l0.0378817 -0.0727356c0.0324329,-0.0593996 0.0745557,-0.0887989 0.126987,-0.0887989 0.026672,0 0.0506168,0.0087886 0.0724351,0.0260653 0.0215179,0.0175772 0.0363678,0.0351544 0.0442492,0.0530378 0.00788142,0.0175772 0.0109092,0.0275792 0.00848813,0.0300003l-0.154266 0.147598c0.0527374,0.0566723 0.0791031,0.122746 0.0791031,0.197908 0,0.0948602 -0.0369745,0.171537 -0.110924,0.230029 -0.0736486,0.0584924 -0.171843,0.0878917 -0.293982,0.0878917l-0.0124231 0c-0.00242683,0.00484788 -0.00364025,0.0115159 -0.00364025,0.0193973 0,0.010002 0.0027273,0.0184844 0.00818189,0.0254586 0.00546037,0.00726894 0.0160633,0.0136365 0.0321266,0.0190911 0.0157628,0.00576084 0.0306127,0.0103025 0.0442492,0.0136365 0.0139427,0.00364025 0.0363678,0.00970155 0.0678877,0.0178834l0.0763758 0.020004c0.171843,0.0448559 0.257608,0.126681 0.257001,0.245185 0,0.0857654 -0.0421229,0.153959 -0.126681,0.20427 -0.0842573,0.0503105 -0.201543,0.0754629 -0.351867,0.0754629 -0.159113,0 -0.275492,-0.020004 -0.349747,-0.0600063 -0.0742495,-0.040008 -0.111224,-0.102135 -0.111224,-0.186693zm0.244879 -0.0151561c0,0.0669805 0.0730418,0.100321 0.219426,0.100321 0.0745557,0 0.131534,-0.0093953 0.170936,-0.0284922 0.0397018,-0.0187906 0.0593996,-0.0457631 0.0593996,-0.080617 0,-0.0093953 -0.00212059,-0.0184844 -0.0060613,-0.0269725 -0.00424118,-0.0087886 -0.0109092,-0.0163638 -0.020004,-0.023338 -0.00908906,-0.00666801 -0.0181839,-0.0121226 -0.027273,-0.0163638 -0.00909484,-0.00394071 -0.0218241,-0.00818189 -0.0381879,-0.0121226 -0.0163696,-0.00424118 -0.0306127,-0.00757518 -0.0421286,-0.0103025 -0.0115159,-0.00303354 -0.0278854,-0.00697425 -0.0490971,-0.0121226 -0.0212174,-0.00546037 -0.0372808,-0.0093953 -0.0475832,-0.0118221 -0.0660676,0.00484788 -0.119105,0.0178834 -0.159113,0.0390951 -0.0403085,0.0212174 -0.0603125,0.0487966 -0.0603125,0.0827376zm0.101228 -0.816779c-0.030607,0.0306127 -0.0460636,0.0706208 -0.0460636,0.120325 0,0.0497038 0.0154566,0.0900123 0.0466703,0.120926 0.0312137,0.030607 0.0718284,0.0460636 0.121532,0.0460636 0.0500043,0 0.090619,-0.0154566 0.122439,-0.0460636 0.0318262,-0.0309132 0.0478837,-0.0712217 0.0478837,-0.120926 0,-0.0497038 -0.0160575,-0.0897119 -0.0478837,-0.120325 -0.0318204,-0.030607 -0.0733423,-0.0457631 -0.12456,-0.0457631 -0.0494034,0 -0.0894056,0.0151561 -0.120018,0.0457631z"/>
  <path id="12345" class="fil0" d="M5.49833 1.1541l0 -0.752826c0,-0.00242683 0.00424118,-0.0060613 0.0124231,-0.0106087 0.00848813,-0.00484788 0.0203103,-0.00909484 0.0360673,-0.0130298 0.0157628,-0.00364025 0.0318204,-0.00576084 0.0478837,-0.00576084 0.087285,0 0.138809,0.047277 0.154872,0.141837 0.070615,-0.101528 0.167902,-0.152445 0.292768,-0.152445 0.110016,0 0.192448,0.0339467 0.247306,0.101528 0.0548579,0.0678877 0.0821309,0.156386 0.0821309,0.266096l0 0.42521c0,0.0809233 -0.0375812,0.121532 -0.112744,0.121532l-0.0275792 0c-0.0775835,0 -0.116378,-0.0409152 -0.116378,-0.122439l0 -0.390055c0,-0.0597001 -0.0142432,-0.106677 -0.0424291,-0.140924 -0.0284922,-0.0342472 -0.0691011,-0.0515239 -0.121532,-0.0515239 -0.0900123,0 -0.155173,0.0390951 -0.196088,0.117291l0 0.465212c0,0.0815242 -0.0375812,0.122439 -0.113044,0.122439l-0.0269725 0c-0.0778897,0 -0.116684,-0.040609 -0.116684,-0.121532z"/>
  <path id="123456" class="fil0" d="M6.54635 0.116078c0,-0.0363678 0.0127293,-0.0648542 0.0381879,-0.0851644 0.0254586,-0.020605 0.060613,-0.0309132 0.105769,-0.0309132 0.0448559,0 0.0803166,0.010002 0.105475,0.0303123 0.0254528,0.0203045 0.0381821,0.0490971 0.0381821,0.0860716 0,0.0369745 -0.0127293,0.0660676 -0.0381821,0.0866783 -0.0251582,0.0209112 -0.0606188,0.0312137 -0.105475,0.0312137 -0.0451564,0 -0.0803108,-0.0103025 -0.105769,-0.0312137 -0.0254586,-0.0206107 -0.0381879,-0.0497038 -0.0381879,-0.0869846zm0.0151561 1.03802l0 -0.657966c0,-0.0821309 0.0381879,-0.123653 0.114558,-0.12426l0.026672 0c0.0763758,0 0.114864,0.0415219 0.115471,0.12426l0 0.657966c0,0.0809233 -0.0375812,0.121532 -0.112744,0.121532l-0.0275792 0c-0.0775835,0 -0.116378,-0.040609 -0.116378,-0.121532z"/>
  <path id="1234567" class="fil0" d="M6.94762 0.492497l0 -0.0169763c0,-0.0627336 0.0354549,-0.093953 0.106682,-0.093953l0.0433363 0 0 -0.112738c0,-0.0821367 0.0387946,-0.123653 0.116684,-0.12426l0.0212117 0c0.0766763,0 0.11517,0.0415162 0.11517,0.12426l0 0.112738 0.153653 0c0.0691011,0 0.103655,0.0303123 0.103655,0.090619l0 0.014249c0,0.0627336 -0.0351602,0.0942535 -0.105168,0.0948602l-0.157594 0 0 0.380354c0,0.0875855 0.0327276,0.131228 0.0984947,0.131228 0.0451564,0 0.0833443,-0.0199982 0.114564,-0.0597058 0.00121342,-0.00242105 0.00696847,-0.000300465 0.0172767,0.0060613 0.0103025,0.00636754 0.0203045,0.0181897 0.0296998,0.0351602 0.00969577,0.01667 0.0142432,0.0360616 0.0142432,0.0578857 0,0.0454626 -0.0215179,0.0836448 -0.0642532,0.114258 -0.0430358,0.0306127 -0.0997081,0.0460693 -0.170023,0.0460693 -0.192448,0 -0.288221,-0.101228 -0.287614,-0.303677l0 -0.407633 -0.0433363 0c-0.0712275,0 -0.106682,-0.0296998 -0.106682,-0.0887989z"/>
  <path id="12345678" class="fil0" d="M7.70106 0.826174c0,-0.137289 0.0442492,-0.249126 0.132742,-0.335498 0.0884984,-0.0863779 0.203062,-0.129414 0.343986,-0.129414 0.139109,0 0.25246,0.0433421 0.339745,0.130321 0.087285,0.0866783 0.130928,0.199422 0.130928,0.338531 0,0.138809 -0.0436425,0.25064 -0.131228,0.335504 -0.0875913,0.084552 -0.201849,0.126987 -0.342778,0.126987 -0.140924,0 -0.255187,-0.0430358 -0.342466,-0.128807 -0.087285,-0.0857712 -0.130928,-0.198515 -0.130928,-0.337624zm0.225482 0c0,0.0778897 0.0236385,0.141837 0.0709213,0.191847 0.0475832,0.0500043 0.106983,0.0748562 0.178511,0.0748562 0.0718284,0 0.130928,-0.0248519 0.177297,-0.0748562 0.0463698,-0.0500101 0.0697021,-0.112744 0.0697021,-0.188513 0,-0.0778897 -0.0233322,-0.142137 -0.0697021,-0.192754 -0.0463698,-0.050611 -0.105469,-0.0757634 -0.177297,-0.0757634 -0.071528,0 -0.130928,0.0248519 -0.178511,0.0748562 -0.0472828,0.0500043 -0.0709213,0.11335 -0.0709213,0.190327z"/>
 </g>
</svg>
