<?xml version="1.0" encoding="UTF-8"?>
<!DOCTYPE svg PUBLIC "-//W3C//DTD SVG 1.1//EN" "http://www.w3.org/Graphics/SVG/1.1/DTD/svg11.dtd">
<!-- Creator: CorelDRAW -->
<svg xmlns="http://www.w3.org/2000/svg" xml:space="preserve" width="7.56391in" height="1.29715in" style="shape-rendering:geometricPrecision; text-rendering:geometricPrecision; image-rendering:optimizeQuality; fill-rule:evenodd; clip-rule:evenodd"
viewBox="0 0 7.77616 1.33355"
 xmlns:xlink="http://www.w3.org/1999/xlink">
 <defs>
  <style type="text/css">
   <![CDATA[
    .fil0 {fill:#ED3237;fill-rule:nonzero}
    .fil1 {fill:#4663AC;fill-rule:nonzero}
   ]]>
  </style>
 </defs>
 <g id="Layer_x0020_1">
  <metadata id="CorelCorpID_0Corel-Layer"/>
  <path class="fil0" d="M0.695499 0.0254061c0.0234916,-0.0178008 0.0548717,-0.0182906 0.0830018,-0.0222733 0.0927602,-0.0104061 0.194138,0.00373583 0.268931,0.0634119 0.0393496,0.0295912 0.0626793,0.073899 0.0930071,0.111537 0.0636507,-0.00113734 0.12926,0.0216257 0.172431,0.0695924 0.052759,0.0590245 0.0725147,0.141132 0.0687748,0.218852 -0.00446842,0.0278872 0.0154492,0.0493469 0.0277253,0.07211 0.0591823,0.103328 0.0454451,0.24178 -0.0303278,0.332914 -0.0160968,0.02114 -0.0468253,0.0358526 -0.0449554,0.0660145 -0.00276443,0.077311 -0.0440609,0.154059 -0.112273,0.19243 -0.0264989,0.015854 -0.0621896,0.0208122 -0.0776348,0.0508121 -0.0550417,0.0864988 -0.153084,0.139343 -0.253571,0.151052 -0.0627603,0.00211279 -0.125602,0.000323799 -0.188447,0.000566648 -0.00853614,-0.019347 -0.0183715,-0.0392646 -0.0170723,-0.0610522 0.000246897,-0.382261 0.000165947,-0.764602 0,-1.14686 0.000732595,-0.0330882 -0.00430652,-0.0681272 0.0104101,-0.0991026zm0.0525971 0.0448785l0 0c8.09497e-005,0.0798326 -0.000242849,0.159584 8.09497e-005,0.239421 0.0258513,-0.00244063 0.0586966,0.00837424 0.0776388,-0.0147976 0.012357,-0.0113815 0.022844,-0.0247139 0.0360955,-0.0350391 0.0145548,0.00138019 0.0285348,0.00618051 0.0427617,0.00934969 -0.000485698,0.0155261 -0.000242849,0.0323556 -0.0114625,0.0446316 -0.0317849,0.0476389 -0.0910522,0.0634929 -0.145195,0.066743 8.09497e-005,0.11577 -8.09497e-005,0.231455 0.000161899,0.347226 0.0284538,0.0238194 0.0630072,0.0455221 0.101948,0.0354438 0.0470722,-0.0162587 0.075603,-0.0620317 0.120967,-0.0817025 0.0432514,-0.0241473 0.0940635,-0.0159349 0.141379,-0.0165866 0.0181287,-0.0365043 0.0454451,-0.0682891 0.0817066,-0.0876402 0.0078845,0.0161818 0.0223543,0.0313842 0.0200755,0.0507312 -0.0236575,0.0272355 -0.0595061,0.0569886 -0.0465825,0.0978803 0.00674716,0.0382123 0.0491041,0.0486993 0.0786952,0.0639017 -0.00211279,0.0160159 0.00422962,0.0365852 -0.0126808,0.0464206 -0.0340636,0.00268348 -0.0671518,-0.0129277 -0.0905665,-0.03699 -0.0206462,-0.0217067 -0.0266648,-0.0526821 -0.0451983,-0.0757689 -0.0300809,-0.00431057 -0.0627643,-0.00626146 -0.0911372,0.00658526 -0.0520264,0.0208122 -0.0824351,0.0760117 -0.138124,0.0900768 -0.0401591,0.0178049 -0.0822732,-0.00105639 -0.12032,-0.0148786 -0.0071519,0.0717052 -0.00828925,0.144467 0.00146519,0.216006 0.033412,-0.000161899 0.0670668,-0.00219374 0.100159,0.00341608 0.0480477,0.012357 0.0831677,0.0513828 0.10674,0.093165 -0.0164206,0.00805045 -0.0329222,0.0159349 -0.0495898,0.0234147 -0.0219495,-0.0231678 -0.0426807,-0.050974 -0.0745506,-0.0608094 -0.0293483,-0.00520102 -0.0593483,-0.00211279 -0.0888585,0 -0.000242849,0.0641445 -0.000485698,0.128289 0.000165947,0.19243 0.0357676,0.00106044 0.0715393,0.00106044 0.107311,0.00113734 0.0856852,0.00309228 0.171294,-0.0364193 0.227064,-0.101049 0.0152023,-0.0182096 0.0300769,-0.0397544 0.028211,-0.0647112 0.00129924,-0.049185 -0.014231,-0.103899 -0.0565838,-0.133085 -0.0342255,-0.022844 -0.0769872,-0.0236575 -0.116418,-0.02813 -0.0205693,-0.0111387 -0.00683215,-0.0378035 -0.00528601,-0.0555274 0.0604856,-0.000647597 0.126662,0.00455342 0.173815,0.0471532 0.0447935,0.0382123 0.0523542,0.0991836 0.0677185,0.152513 0.0269927,-0.0138181 0.0526821,-0.0313801 0.0705679,-0.0563369 0.0331691,-0.044065 0.0395115,-0.101296 0.0381273,-0.154792 0.0259363,-0.0200796 0.0547139,-0.0385361 0.0716243,-0.0675566 0.0367471,-0.0572355 0.0401591,-0.129345 0.0280491,-0.194461 -0.00870209,-0.0426848 -0.0391068,-0.0750404 -0.0602428,-0.111626 -0.00325013,-0.0310523 0.00975444,-0.0618658 0.00276443,-0.0926752 -0.00658526,-0.0537384 -0.0277212,-0.108695 -0.0715433,-0.142844 -0.0278831,-0.0240623 -0.0654438,-0.0287776 -0.0999121,-0.0373947 -0.0137412,0.0468294 -0.0203265,0.0959335 -0.0415434,0.140484 0.043899,0.0306475 0.0934888,0.0699162 0.0921895,0.12926 -0.0167444,0.000323799 -0.033412,0.000408796 -0.0501605,0.000489746 -0.0160968,-0.0317889 -0.0398353,-0.0587816 -0.0708107,-0.0766634 -0.0352819,0.0338208 -0.0721909,0.0679613 -0.118692,0.0856043 -0.0327644,0.0149595 -0.0692646,0.0151214 -0.104466,0.0147167 -0.000489746,-0.0161778 -0.000813544,-0.0323596 -0.00130329,-0.0485374 0.0420331,-0.0113006 0.0873164,-0.0163397 0.124302,-0.0411346 0.0412196,-0.026341 0.068617,-0.0694305 0.0857702,-0.114386 0.0125998,-0.0366662 0.024633,-0.0758498 0.017562,-0.114953 -0.022848,-0.0495938 -0.061461,-0.0928412 -0.110322,-0.117883 -0.0683701,-0.0358526 -0.149587,-0.031623 -0.223567,-0.0202415z"/>
  <path class="fil1" d="M0.402093 0.0636143c0.0663423,-0.0276362 0.136825,-0.0507271 0.209506,-0.0494279 0,0.0180477 0.000813544,0.0360995 -0.000894494,0.0541432 -0.00870209,0.0126039 -0.024633,0.0121951 -0.0380463,0.0151254 -0.161701,0.0236575 -0.310397,0.119668 -0.401531,0.254947 -0.0622746,0.0899149 -0.0958485,0.197388 -0.104466,0.305921 -0.00552886,0.134466 0.0342255,0.270882 0.112759,0.380391 0.0625984,0.091461 0.154545,0.160645 0.255926,0.203977 0.056175,0.0244711 0.116823,0.0350391 0.176495,0.0471491 -8.09497e-005,0.0190232 0,0.0380504 0.000161899,0.0570736 -0.0208931,0.000566648 -0.0418672,0.00146114 -0.0625984,-0.000975444 -0.164057,-0.0291055 -0.315028,-0.122679 -0.414859,-0.255926 -0.112111,-0.148122 -0.159669,-0.345028 -0.121623,-0.527294 0.0388599,-0.212918 0.190806,-0.399738 0.38917,-0.485103z"/>
  <path class="fil1" d="M0.308604 0.338159c0.0697503,-0.0684551 0.162268,-0.111541 0.258444,-0.126338 0.0151214,-0.00113734 0.0330882,-0.00544791 0.0442228,0.00805045 0.00114139,0.0180477 0.000732595,0.0360145 0.000975444,0.0540622 -0.0820263,0.012191 -0.164623,0.0365852 -0.229743,0.0901577 -0.0599149,0.0466634 -0.104061,0.112759 -0.128694,0.184383 -0.0147976,0.0402401 -0.0151214,0.0838153 -0.0256894,0.125116 -0.0214638,-0.000161899 -0.0429276,-0.000485698 -0.0644683,-0.00113734 0,-0.124792 0.0539813,-0.248771 0.144953,-0.334294z"/>
  <path class="fil1" d="M0.358356 0.620099c0.0206503,-0.114795 0.120401,-0.215848 0.238122,-0.227064 0.000242849,0.0199177 0.000242849,0.0398353 8.09497e-005,0.059834 -0.0697543,0.0181287 -0.133247,0.0648731 -0.161944,0.132191 -0.0424379,0.0912141 -0.0112196,0.208199 0.0693455,0.267713 0.0241473,0.0186144 0.0533337,0.028126 0.0805652,0.0409727 0.0243901,0.0083702 0.0142269,0.0393456 0.0145507,0.0587776 -0.0619467,0.00235564 -0.118041,-0.0320318 -0.160236,-0.0745506 -0.0286967,-0.0275593 -0.0512978,-0.0611332 -0.0660145,-0.0980422 -0.022844,-0.0500795 -0.0161778,-0.106582 -0.0144698,-0.159831z"/>
  <path class="fil1" d="M0.201698 0.861143c0.0173151,-0.0115434 0.0343874,-0.0271546 0.0563369,-0.0273934 0.0134134,0.00552482 0.0170723,0.0217836 0.0250418,0.0327603 0.0412155,0.0784524 0.111702,0.140156 0.193,0.174544 0.0434943,0.019351 0.0917848,0.0220305 0.13617,0.0383742 -0.000404748,0.0195129 -0.000566648,0.0391027 -0.000809497,0.0586966 -0.0978034,0.00211279 -0.193162,-0.0385361 -0.270072,-0.0971518 -0.0611332,-0.0465825 -0.106906,-0.110727 -0.139667,-0.17983z"/>
  <path class="fil1" d="M1.76544 0.564551c0,-0.125468 0.0394873,-0.228432 0.118458,-0.308677 0.0789745,-0.0802495 0.181303,-0.120372 0.306981,-0.120372 0.0987181,0 0.176203,0.0201686 0.232463,0.0607163 0.0564705,0.0405477 0.0847057,0.0804599 0.0847057,0.119947 0,0.0250499 -0.00891661,0.0458539 -0.0267498,0.0626267 -0.0178332,0.0167728 -0.0354519,0.0275998 -0.0528601,0.0326915 -0.0174082,0.00509578 -0.0269643,0.00594575 -0.0286602,0.00254991 -0.0203831,-0.0356664 -0.0486184,-0.0634767 -0.0849203,-0.0838558 -0.0363019,-0.0203831 -0.0751496,-0.0305706 -0.116547,-0.0305706 -0.0696329,0 -0.126953,0.0244144 -0.171961,0.0734537 -0.045008,0.0488288 -0.067508,0.112516 -0.067508,0.190641 0,0.0781245 0.0227145,0.142026 0.0681434,0.191276 0.045433,0.0494683 0.102964,0.0740932 0.172597,0.0740932 0.0475539,0 0.0898015,-0.011252 0.126318,-0.033756 0.0363019,-0.0222895 0.0626267,-0.0534996 0.0789745,-0.0934078 0.00148543,-0.00339989 0.0114625,-0.00254991 0.0297207,0.00254587 0.0182542,0.00509578 0.0365124,0.0159228 0.0547706,0.0324811 0.0182582,0.0165583 0.0273853,0.0373623 0.0273853,0.0622017 0,0.0420372 -0.0292957,0.0849203 -0.0881016,0.128653 -0.0585914,0.0435185 -0.13863,0.0653871 -0.240319,0.0653871 -0.124828,0 -0.226517,-0.0397018 -0.305067,-0.119312 -0.0785495,-0.07961 -0.117822,-0.182784 -0.117822,-0.309313z"/>
  <path id="1" class="fil1" d="M2.58511 0.666451c0,-0.0961682 0.0309956,-0.174507 0.0929828,-0.235009 0.0619913,-0.0605058 0.142241,-0.0906515 0.240955,-0.0906515 0.0974432,0 0.176843,0.0303602 0.237984,0.091287 0.0611413,0.0607163 0.0917119,0.139691 0.0917119,0.237134 0,0.0972327 -0.0305706,0.175568 -0.0919224,0.235013 -0.0613558,0.0592268 -0.141391,0.0889516 -0.240109,0.0889516 -0.0987141,0 -0.178753,-0.0301457 -0.23989,-0.0902265 -0.0611413,-0.0600809 -0.0917119,-0.139055 -0.0917119,-0.236499zm0.157945 0c0,0.0545601 0.0165583,0.0993536 0.0496788,0.134385 0.033331,0.0350269 0.0749392,0.0524352 0.125043,0.0524352 0.0503143,0 0.0917119,-0.0174082 0.124193,-0.0524352 0.0324811,-0.035031 0.0488248,-0.0789745 0.0488248,-0.132049 0,-0.0545601 -0.0163437,-0.0995641 -0.0488248,-0.13502 -0.0324811,-0.0354519 -0.0738787,-0.0530706 -0.124193,-0.0530706 -0.0501038,0 -0.0917119,0.0174082 -0.125043,0.0524352 -0.0331206,0.0350269 -0.0496788,0.0793995 -0.0496788,0.13332z"/>
  <path id="12" class="fil1" d="M3.33154 0.564551c0,-0.125468 0.0394873,-0.228432 0.118458,-0.308677 0.0789745,-0.0802495 0.181303,-0.120372 0.306981,-0.120372 0.0987181,0 0.176203,0.0201686 0.232463,0.0607163 0.0564705,0.0405477 0.0847057,0.0804599 0.0847057,0.119947 0,0.0250499 -0.00891661,0.0458539 -0.0267498,0.0626267 -0.0178332,0.0167728 -0.0354519,0.0275998 -0.0528601,0.0326915 -0.0174082,0.00509578 -0.0269643,0.00594575 -0.0286602,0.00254991 -0.0203831,-0.0356664 -0.0486184,-0.0634767 -0.0849203,-0.0838558 -0.0363019,-0.0203831 -0.0751496,-0.0305706 -0.116547,-0.0305706 -0.0696329,0 -0.126953,0.0244144 -0.171961,0.0734537 -0.045008,0.0488288 -0.067508,0.112516 -0.067508,0.190641 0,0.0781245 0.0227145,0.142026 0.0681434,0.191276 0.045433,0.0494683 0.102964,0.0740932 0.172597,0.0740932 0.0475539,0 0.0898015,-0.011252 0.126318,-0.033756 0.0363019,-0.0222895 0.0626267,-0.0534996 0.0789745,-0.0934078 0.00148543,-0.00339989 0.0114625,-0.00254991 0.0297207,0.00254587 0.0182542,0.00509578 0.0365124,0.0159228 0.0547706,0.0324811 0.0182582,0.0165583 0.0273853,0.0373623 0.0273853,0.0622017 0,0.0420372 -0.0292957,0.0849203 -0.0881016,0.128653 -0.0585914,0.0435185 -0.13863,0.0653871 -0.240319,0.0653871 -0.124828,0 -0.226517,-0.0397018 -0.305067,-0.119312 -0.0785495,-0.07961 -0.117822,-0.182784 -0.117822,-0.309313z"/>
  <path id="123" class="fil1" d="M4.15121 0.666451c0,-0.0961682 0.0309956,-0.174507 0.0929828,-0.235009 0.0619913,-0.0605058 0.142241,-0.0906515 0.240955,-0.0906515 0.0974432,0 0.176843,0.0303602 0.237984,0.091287 0.0611413,0.0607163 0.0917119,0.139691 0.0917119,0.237134 0,0.0972327 -0.0305706,0.175568 -0.0919224,0.235013 -0.0613558,0.0592268 -0.141391,0.0889516 -0.240109,0.0889516 -0.0987141,0 -0.178753,-0.0301457 -0.23989,-0.0902265 -0.0611413,-0.0600809 -0.0917119,-0.139055 -0.0917119,-0.236499zm0.157945 0c0,0.0545601 0.0165583,0.0993536 0.0496788,0.134385 0.033331,0.0350269 0.0749392,0.0524352 0.125043,0.0524352 0.0503143,0 0.0917119,-0.0174082 0.124193,-0.0524352 0.0324811,-0.035031 0.0488248,-0.0789745 0.0488248,-0.132049 0,-0.0545601 -0.0163437,-0.0995641 -0.0488248,-0.13502 -0.0324811,-0.0354519 -0.0738787,-0.0530706 -0.124193,-0.0530706 -0.0501038,0 -0.0917119,0.0174082 -0.125043,0.0524352 -0.0331206,0.0350269 -0.0496788,0.0793995 -0.0496788,0.13332z"/>
  <path id="1234" class="fil1" d="M4.84223 1.07236c0,-0.0424581 0.0178332,-0.0776995 0.0532851,-0.105935 0.0354519,-0.0282352 0.0825849,-0.0464934 0.141391,-0.0547746 -0.0144374,-0.0127374 -0.021654,-0.0320561 -0.021654,-0.0577414 0,-0.0282352 0.0140083,-0.0524392 0.0420331,-0.0721828 -0.0532851,-0.0154978 -0.0948973,-0.0411831 -0.125043,-0.0772746 -0.0301457,-0.0360914 -0.0452185,-0.07876 -0.0452185,-0.128014 0,-0.0672975 0.0265353,-0.123133 0.0798245,-0.167712 0.0532851,-0.044583 0.121008,-0.0668766 0.203163,-0.0668766 0.0471329,0 0.0919265,0.00891661 0.134385,0.0267498l0.0265353 -0.0509497c0.0227185,-0.0416081 0.0522247,-0.0622017 0.0889516,-0.0622017 0.0186832,0 0.035456,0.00615622 0.0507393,0.0182582 0.0150728,0.0123124 0.0254749,0.0246249 0.0309956,0.0371519 0.00552077,0.0123124 0.00764165,0.0193186 0.00594575,0.0210145l-0.10806 0.103389c0.0369414,0.0396977 0.0554101,0.0859807 0.0554101,0.13863 0,0.0664475 -0.0258998,0.120158 -0.0776995,0.16113 -0.0515892,0.0409727 -0.120372,0.0615663 -0.205928,0.0615663l-0.00870209 0c-0.00169994,0.00339584 -0.00254991,0.00806664 -0.00254991,0.0135874 0,0.00700619 0.00191041,0.0129479 0.00573124,0.0178332 0.00382487,0.00509173 0.011252,0.00955206 0.022504,0.0133729 0.0110415,0.00403534 0.0214436,0.00721666 0.0309956,0.00955206 0.00976658,0.00254991 0.0254749,0.00679573 0.0475539,0.012527l0.0534996 0.0140124c0.120372,0.0314206 0.180449,0.088737 0.180024,0.171747 0,0.0600768 -0.0295062,0.107845 -0.088737,0.143087 -0.0590204,0.0352414 -0.141176,0.0528601 -0.246476,0.0528601 -0.111456,0 -0.192976,-0.0140124 -0.24499,-0.0420331 -0.0520102,-0.0280248 -0.07791,-0.0715433 -0.07791,-0.130774zm0.171532 -0.0106166c0,0.0469184 0.0511642,0.0702724 0.153703,0.0702724 0.0522247,0 0.0921369,-0.00658121 0.119737,-0.0199581 0.0278103,-0.0131624 0.0416081,-0.0320561 0.0416081,-0.0564705 0,-0.00658121 -0.00148543,-0.0129479 -0.00424581,-0.0188937 -0.00297085,-0.00615622 -0.00764165,-0.0114625 -0.0140124,-0.0163478 -0.00636669,-0.0046708 -0.0127374,-0.00849162 -0.0191041,-0.0114625 -0.00637074,-0.00276038 -0.0152873,-0.00573124 -0.0267498,-0.00849162 -0.0114665,-0.00297085 -0.0214436,-0.00530625 -0.0295102,-0.00721666 -0.00806664,-0.00212493 -0.0195332,-0.00488531 -0.0343915,-0.00849162 -0.0148624,-0.00382487 -0.0261144,-0.00658121 -0.033331,-0.00828115 -0.0462789,0.00339584 -0.0834308,0.012527 -0.111456,0.0273853 -0.0282352,0.0148624 -0.0422476,0.034181 -0.0422476,0.0579559zm0.0709079 -0.572136c-0.0214395,0.0214436 -0.0322665,0.0494683 -0.0322665,0.0842848 0,0.0348165 0.010827,0.0630517 0.0326915,0.0847057 0.0218645,0.0214395 0.0503143,0.0322665 0.0851307,0.0322665 0.0350269,0 0.0634767,-0.010827 0.0857662,-0.0322665 0.0222935,-0.021654 0.0335415,-0.0498893 0.0335415,-0.0847057 0,-0.0348165 -0.011248,-0.0628412 -0.0335415,-0.0842848 -0.0222895,-0.0214395 -0.0513747,-0.0320561 -0.0872516,-0.0320561 -0.034606,0 -0.0626267,0.0106166 -0.0840703,0.0320561z"/>
  <path id="12345" class="fil1" d="M5.56956 0.896153l0 -0.527339c0,-0.00169994 0.00297085,-0.00424581 0.00870209,-0.00743118 0.00594575,-0.00339584 0.0142269,-0.00637074 0.0252644,-0.00912708 0.0110415,-0.00254991 0.0222895,-0.00403534 0.0335415,-0.00403534 0.0611413,0 0.0972327,0.0331165 0.108485,0.0993536 0.0494643,-0.0711183 0.117612,-0.106785 0.205078,-0.106785 0.0770641,0 0.134805,0.023779 0.173232,0.0711183 0.0384268,0.0475539 0.0575309,0.109545 0.0575309,0.186395l0 0.29785c0,0.056685 -0.0263248,0.0851307 -0.0789745,0.0851307l-0.0193186 0c-0.0543456,0 -0.0815204,-0.0286602 -0.0815204,-0.0857662l0 -0.273225c0,-0.0418186 -0.00997705,-0.0747246 -0.0297207,-0.0987141 -0.0199581,-0.0239894 -0.0484039,-0.0360914 -0.0851307,-0.0360914 -0.0630517,0 -0.108695,0.0273853 -0.137355,0.0821599l0 0.325871c0,0.057106 -0.0263248,0.0857662 -0.079185,0.0857662l-0.0188937 0c-0.0545601,0 -0.0817349,-0.0284457 -0.0817349,-0.0851307z"/>
  <path id="123456" class="fil1" d="M6.30367 0.169043c0,-0.0254749 0.00891661,-0.045429 0.0267498,-0.0596559 0.0178332,-0.0144333 0.0424581,-0.021654 0.0740892,-0.021654 0.0314206,0 0.05626,0.00700619 0.0738828,0.0212331 0.0178292,0.0142229 0.0267458,0.0343915 0.0267458,0.0602913 0,0.0258998 -0.00891661,0.0462789 -0.0267458,0.0607163 -0.0176227,0.0146478 -0.0424622,0.0218645 -0.0738828,0.0218645 -0.0316311,0 -0.056256,-0.00721666 -0.0740892,-0.0218645 -0.0178332,-0.0144374 -0.0267498,-0.0348165 -0.0267498,-0.0609308zm0.0106166 0.72711l0 -0.460891c0,-0.0575309 0.0267498,-0.0866162 0.0802454,-0.0870411l0.0186832 0c0.0534996,0 0.0804599,0.0290852 0.0808849,0.0870411l0 0.460891c0,0.056685 -0.0263248,0.0851307 -0.0789745,0.0851307l-0.0193186 0c-0.0543456,0 -0.0815204,-0.0284457 -0.0815204,-0.0851307z"/>
  <path id="1234567" class="fil1" d="M6.58475 0.432717l0 -0.0118915c0,-0.0439435 0.0248354,-0.0658121 0.0747287,-0.0658121l0.0303561 0 0 -0.0789705c0,-0.057535 0.0271748,-0.0866162 0.0817349,-0.0870411l0.0148583 0c0.0537101,0 0.0806744,0.0290812 0.0806744,0.0870411l0 0.0789705 0.107631 0c0.0484039,0 0.0726078,0.0212331 0.0726078,0.0634767l0 0.0099811c0,0.0439435 -0.0246289,0.0660226 -0.0736683,0.0664475l-0.110391 0 0 0.26643c0,0.0613518 0.0229249,0.0919224 0.0689934,0.0919224 0.0316311,0 0.0583809,-0.0140083 0.0802495,-0.0418227 0.000849972,-0.0016959 0.00488127,-0.000210469 0.012102,0.00424581 0.00721666,0.00446033 0.0142229,0.0127415 0.0208041,0.0246289 0.00679168,0.011677 0.00997705,0.0252603 0.00997705,0.0405477 0,0.0318456 -0.0150728,0.0585914 -0.045008,0.0800349 -0.0301457,0.0214436 -0.0698434,0.0322706 -0.119097,0.0322706 -0.134805,0 -0.201893,-0.0709079 -0.201468,-0.21272l0 -0.285538 -0.0303561 0c-0.0498933,0 -0.0747287,-0.0208041 -0.0747287,-0.0622017z"/>
  <path id="12345678" class="fil1" d="M7.11252 0.666451c0,-0.0961682 0.0309956,-0.174507 0.0929828,-0.235009 0.0619913,-0.0605058 0.142241,-0.0906515 0.240955,-0.0906515 0.0974432,0 0.176843,0.0303602 0.237984,0.091287 0.0611413,0.0607163 0.0917119,0.139691 0.0917119,0.237134 0,0.0972327 -0.0305706,0.175568 -0.0919224,0.235013 -0.0613558,0.0592268 -0.141391,0.0889516 -0.240109,0.0889516 -0.0987141,0 -0.178753,-0.0301457 -0.23989,-0.0902265 -0.0611413,-0.0600809 -0.0917119,-0.139055 -0.0917119,-0.236499zm0.157945 0c0,0.0545601 0.0165583,0.0993536 0.0496788,0.134385 0.033331,0.0350269 0.0749392,0.0524352 0.125043,0.0524352 0.0503143,0 0.0917119,-0.0174082 0.124193,-0.0524352 0.0324811,-0.035031 0.0488248,-0.0789745 0.0488248,-0.132049 0,-0.0545601 -0.0163437,-0.0995641 -0.0488248,-0.13502 -0.0324811,-0.0354519 -0.0738787,-0.0530706 -0.124193,-0.0530706 -0.0501038,0 -0.0917119,0.0174082 -0.125043,0.0524352 -0.0331206,0.0350269 -0.0496788,0.0793995 -0.0496788,0.13332z"/>
 </g>
</svg>
